<svg version="1.1" id="Layer_1" xmlns="http://www.w3.org/2000/svg" xmlns:xlink="http://www.w3.org/1999/xlink" x="0px" y="0px"
	 width="100%" viewBox="0 0 225 225" enable-background="new 0 0 225 225" xml:space="preserve">
<path fill="#000000" opacity="1.000000" stroke="none" 
	d="
M1.000000,84.000000 
	C1.000000,56.000004 1.000000,28.500010 1.000000,1.000011 
	C75.999977,1.000007 150.999954,1.000007 225.999954,1.000004 
	C225.999969,75.999969 225.999969,150.999939 225.999985,225.999939 
	C151.000046,225.999954 76.000092,225.999954 1.000068,225.999969 
	C1.000000,178.833328 1.000000,131.666672 1.000000,84.000000 
M101.855263,32.416729 
	C101.497742,32.343452 101.140228,32.270172 100.483063,32.052841 
	C100.483063,32.052841 100.153229,32.011017 99.952744,31.480665 
	C99.637154,31.298285 99.321564,31.115904 99.002609,30.998714 
	C99.002609,30.998714 99.067245,30.989550 98.931122,30.461821 
	C98.625214,30.294582 98.319305,30.127344 97.999161,30.002678 
	C97.999161,30.002678 98.037560,29.979416 97.858459,29.452456 
	C97.524216,29.384184 97.189964,29.315912 96.494133,29.096949 
	C96.494133,29.096949 96.108521,29.027988 95.894737,28.480539 
	C95.545502,28.394514 95.196266,28.308489 94.496750,28.075129 
	C94.496750,28.075129 94.120697,28.020422 93.857643,27.395655 
	C92.901199,26.888803 91.944748,26.381950 90.693283,25.296957 
	C89.504745,24.871696 88.316208,24.446434 86.836266,23.431017 
	C86.215958,23.348579 85.595642,23.266144 84.390030,22.934534 
	C83.637909,22.630112 82.885796,22.325689 81.769325,21.393261 
	C80.831100,21.317371 79.892868,21.241480 78.350197,21.032637 
	C77.938126,21.013029 77.526054,20.993422 76.743340,20.312809 
	C75.493660,20.179579 74.243980,20.046350 73.005386,19.982178 
	C73.005386,19.982178 73.073524,19.966417 72.665230,19.308071 
	C70.758530,19.531052 68.851822,19.754032 67.006287,19.995714 
	C67.006287,19.995714 67.010986,19.931931 66.255981,19.992344 
	C65.151047,20.316832 64.046112,20.641317 62.997940,20.991436 
	C62.997940,20.991436 62.976852,20.932827 62.343052,21.008829 
	C61.860466,21.346687 61.377876,21.684544 60.527065,22.063560 
	C60.527065,22.063560 60.189663,22.216650 59.620651,22.110588 
	C59.402309,22.401426 59.183968,22.692263 59.001411,23.003771 
	C59.001411,23.003771 58.989803,22.964123 58.450150,23.095711 
	C58.255657,23.401400 58.061165,23.707088 57.439171,24.125511 
	C57.165112,24.295502 57.021618,24.541616 56.481964,25.055840 
	C56.301868,25.368095 56.121773,25.680351 56.001774,26.000597 
	C56.001774,26.000597 55.989239,25.941282 55.469509,26.087482 
	C55.296673,26.389004 55.123833,26.690525 55.004242,27.004385 
	C55.004242,27.004385 54.991516,26.951231 54.471481,27.088123 
	C54.296612,27.387304 54.121746,27.686483 53.999073,28.000509 
	C53.999073,28.000509 53.969349,27.955112 53.376644,28.184538 
	C53.225964,28.789577 53.075283,29.394619 52.991699,29.992022 
	C52.991699,29.992022 52.974335,29.926765 52.406307,30.122023 
	C52.329304,30.487663 52.252300,30.853306 52.045250,31.494686 
	C52.045250,31.494686 52.021843,31.798656 51.380173,32.146881 
	C51.214027,33.087429 51.047882,34.027977 50.957512,34.965225 
	C50.957512,34.965225 50.950642,34.889687 50.466461,35.060097 
	C50.369553,35.353451 50.272644,35.646801 50.028652,36.589478 
	C49.743286,37.387451 49.457916,38.185421 49.028877,39.845768 
	C47.566914,49.309235 47.051579,58.741562 49.987808,68.004524 
	C49.987808,68.004524 49.923862,67.995422 49.978771,68.808487 
	C50.053391,69.892632 50.128010,70.976776 50.102482,72.536987 
	C50.269798,72.850075 50.530022,73.024788 50.962456,73.873108 
	C50.947701,75.231102 50.932941,76.589096 50.230877,78.267487 
	C44.974655,80.196716 39.606899,81.870789 34.485844,84.109261 
	C24.377695,88.527618 15.016962,94.214241 9.609192,104.253143 
	C7.868277,107.484955 6.957027,111.896492 7.509507,115.484512 
	C8.823298,124.016739 14.521380,129.977722 21.261112,135.050491 
	C30.242720,141.810638 40.299732,146.315384 51.209442,149.538559 
	C50.135773,155.560303 48.583088,161.283112 48.230579,167.078918 
	C47.872562,172.965378 48.506954,178.941208 49.041969,184.847534 
	C50.624832,202.321701 63.244289,211.608810 80.462715,206.055435 
	C93.261223,201.927567 103.963829,194.368820 113.445007,185.167007 
	C123.643181,193.843246 133.826492,201.963028 146.635025,206.373489 
	C156.880386,209.901367 168.915771,207.102478 173.044281,198.067505 
	C175.945496,191.718384 178.162537,184.624649 178.641586,177.721573 
	C179.125565,170.747726 176.857315,163.618820 176.257935,156.518738 
	C175.956924,152.953171 174.872696,148.596832 180.359909,147.190491 
	C183.473053,146.392624 186.496613,145.180420 189.482773,143.963989 
	C198.646240,140.231155 207.212601,135.189316 213.031204,127.204010 
	C221.490204,115.595131 221.188477,106.602142 209.681595,95.980537 
	C199.811218,86.869553 187.727692,82.029877 174.991272,78.226158 
	C175.071014,77.633247 175.094635,76.973282 175.253479,76.347664 
	C178.922028,61.898926 180.506668,47.428539 174.981766,33.081879 
	C172.495453,26.625645 168.535263,21.744564 161.168579,19.905046 
	C151.904068,17.591633 144.000977,20.988237 136.569977,25.288330 
	C129.824905,29.191500 123.719704,34.252167 117.557289,39.089054 
	C114.389809,41.575214 111.942741,42.218445 109.078781,38.769745 
	C107.788826,37.216434 105.804070,36.240128 103.906311,34.506847 
	C103.603745,34.326027 103.301170,34.145210 102.989174,34.008949 
	C102.989174,34.008949 103.033905,34.000355 102.907661,33.483025 
	C102.611259,33.312458 102.314865,33.141891 102.000725,33.001091 
	C102.000725,33.001091 102.026680,32.977093 101.855263,32.416729 
z"/>
<path fill="#0DD4F8" opacity="1.000000" stroke="none" 
	d="
M94.120697,28.020422 
	C94.120697,28.020422 94.496750,28.075129 94.843430,28.340614 
	C95.496254,28.746731 95.802383,28.887360 96.108521,29.027988 
	C96.108521,29.027988 96.494133,29.096949 96.836426,29.349354 
	C97.423645,29.821733 97.709930,29.947620 98.037560,29.979416 
	C98.037560,29.979416 97.999161,30.002678 98.117424,30.211525 
	C98.512871,30.610096 98.790062,30.799824 99.067245,30.989550 
	C99.067245,30.989550 99.002609,30.998714 99.137268,31.201784 
	C99.565697,31.606909 99.859459,31.808964 100.153229,32.011017 
	C100.153229,32.011017 100.483063,32.052841 100.801666,32.314537 
	C101.422409,32.709850 101.724548,32.843472 102.026680,32.977093 
	C102.026680,32.977093 102.000725,33.001091 102.111618,33.216213 
	C102.492973,33.621006 102.763443,33.810680 103.033905,34.000355 
	C103.033905,34.000355 102.989174,34.008949 103.120964,34.220131 
	C103.546692,34.621548 103.840630,34.811783 104.134567,35.002014 
	C105.804070,36.240128 107.788826,37.216434 109.078781,38.769745 
	C111.942741,42.218445 114.389809,41.575214 117.557289,39.089054 
	C123.719704,34.252167 129.824905,29.191500 136.569977,25.288330 
	C144.000977,20.988237 151.904068,17.591633 161.168579,19.905046 
	C168.535263,21.744564 172.495453,26.625645 174.981766,33.081879 
	C180.506668,47.428539 178.922028,61.898926 175.253479,76.347664 
	C175.094635,76.973282 175.071014,77.633247 174.991272,78.226158 
	C187.727692,82.029877 199.811218,86.869553 209.681595,95.980537 
	C221.188477,106.602142 221.490204,115.595131 213.031204,127.204010 
	C207.212601,135.189316 198.646240,140.231155 189.482773,143.963989 
	C186.496613,145.180420 183.473053,146.392624 180.359909,147.190491 
	C174.872696,148.596832 175.956924,152.953171 176.257935,156.518738 
	C176.857315,163.618820 179.125565,170.747726 178.641586,177.721573 
	C178.162537,184.624649 175.945496,191.718384 173.044281,198.067505 
	C168.915771,207.102478 156.880386,209.901367 146.635025,206.373489 
	C133.826492,201.963028 123.643181,193.843246 113.445007,185.167007 
	C103.963829,194.368820 93.261223,201.927567 80.462715,206.055435 
	C63.244289,211.608810 50.624832,202.321701 49.041969,184.847534 
	C48.506954,178.941208 47.872562,172.965378 48.230579,167.078918 
	C48.583088,161.283112 50.135773,155.560303 51.209442,149.538559 
	C40.299732,146.315384 30.242720,141.810638 21.261112,135.050491 
	C14.521380,129.977722 8.823298,124.016739 7.509507,115.484512 
	C6.957027,111.896492 7.868277,107.484955 9.609192,104.253143 
	C15.016962,94.214241 24.377695,88.527618 34.485844,84.109261 
	C39.606899,81.870789 44.974655,80.196716 50.870682,78.043884 
	C51.301373,76.233902 51.092262,74.647514 50.883152,73.061127 
	C50.530022,73.024788 50.269798,72.850075 50.356125,72.035248 
	C50.381130,70.354141 50.152496,69.174782 49.923862,67.995422 
	C49.923862,67.995422 49.987808,68.004524 49.999039,67.569870 
	C49.990498,59.029572 50.004112,50.923573 49.916561,42.818668 
	C49.902721,41.537716 49.432022,40.261696 49.172550,38.983395 
	C49.457916,38.185421 49.743286,37.387451 50.267395,36.118279 
	C50.725395,35.436348 50.873566,35.183884 50.950642,34.889687 
	C50.950642,34.889687 50.957512,34.965225 51.172195,34.725067 
	C51.598534,33.589489 51.810188,32.694073 52.021843,31.798656 
	C52.021843,31.798656 52.045250,31.494686 52.299458,31.177032 
	C52.693886,30.548508 52.834110,30.237637 52.974335,29.926765 
	C52.974335,29.926765 52.991699,29.992022 53.191788,29.805721 
	C53.584366,29.064651 53.776859,28.509882 53.969353,27.955112 
	C53.969349,27.955112 53.999073,28.000509 54.202808,27.883617 
	C54.601536,27.494894 54.796528,27.223063 54.991516,26.951231 
	C54.991516,26.951231 55.004242,27.004385 55.206673,26.884823 
	C55.602482,26.490601 55.795860,26.215942 55.989239,25.941284 
	C55.989239,25.941282 56.001774,26.000597 56.206139,25.867712 
	C56.609901,25.444502 56.809299,25.154179 57.008698,24.863855 
	C57.021618,24.541616 57.165112,24.295502 57.893753,23.957417 
	C58.562160,23.514254 58.775982,23.239189 58.989803,22.964123 
	C58.989803,22.964123 59.001411,23.003771 59.221931,22.929733 
	C59.747021,22.707588 59.996090,22.494574 60.189663,22.216650 
	C60.189663,22.216650 60.527065,22.063560 61.016888,22.004915 
	C61.996758,21.608456 62.486805,21.270641 62.976852,20.932827 
	C62.976852,20.932827 62.997940,20.991436 63.338432,20.997459 
	C64.789612,20.646299 65.900299,20.289116 67.010986,19.931931 
	C67.010986,19.931931 67.006287,19.995714 67.412720,20.012032 
	C69.570610,20.007704 71.322067,19.987061 73.073524,19.966417 
	C73.073524,19.966417 73.005386,19.982178 73.270157,20.196362 
	C74.727951,20.598301 75.920967,20.786058 77.113983,20.973814 
	C77.526054,20.993422 77.938126,21.013029 78.927734,21.294111 
	C80.381401,21.710814 81.257538,21.866039 82.133675,22.021267 
	C82.885796,22.325689 83.637909,22.630112 84.913651,23.243614 
	C86.000732,23.708855 86.564201,23.865013 87.127670,24.021172 
	C88.316208,24.446434 89.504745,24.871696 90.987000,25.888548 
	C92.227379,26.993567 93.174042,27.506994 94.120697,28.020422 
M105.165482,161.397568 
	C105.321198,161.672089 105.527657,161.900803 106.107445,162.680588 
	C114.317139,170.994598 114.311768,170.990677 121.371887,161.320419 
	C121.853920,160.660187 122.761757,160.213501 123.009918,159.505661 
	C123.290047,158.706650 123.047768,157.724472 122.309837,156.415894 
	C116.529228,156.281906 110.747047,156.052383 104.970215,156.147690 
	C104.325104,156.158325 103.710419,158.013885 102.999504,159.002884 
	C102.999504,159.002884 103.010345,158.920731 103.245163,159.375458 
	C103.511353,159.582825 103.777534,159.790192 103.991562,160.006760 
	C103.991562,160.006760 104.003410,159.955139 104.243271,160.398361 
	C104.509277,160.597824 104.775284,160.797302 104.994545,161.007828 
	C104.994545,161.007828 105.007118,160.961472 105.165482,161.397568 
M85.657104,71.984291 
	C86.769142,71.607117 87.881187,71.229950 89.280914,70.248116 
	C94.839836,63.427628 100.398758,56.607143 106.214813,49.471165 
	C102.994629,46.675259 100.099106,43.359497 96.505127,41.213455 
	C89.744423,37.176498 82.843849,33.111069 75.511269,30.367516 
	C67.993851,27.554810 62.070217,30.732990 60.245579,37.590881 
	C58.997192,42.282936 57.958393,47.267750 58.179070,52.059361 
	C58.529472,59.667850 60.010277,67.224281 61.418510,75.340202 
	C62.617939,75.198929 63.817371,75.057655 64.996696,74.985893 
	C64.996696,74.985893 64.927437,74.964912 65.816628,75.025673 
	C72.217316,73.979683 78.617996,72.933701 84.999718,71.973129 
	C84.999718,71.973129 84.914650,71.952690 85.657104,71.984291 
M139.992004,134.357071 
	C142.438919,129.972061 145.118332,125.696419 147.250626,121.163399 
	C148.661560,118.163895 151.047653,113.918861 149.963699,111.741814 
	C144.984146,101.740730 138.963959,92.255089 133.222153,82.641266 
	C132.757965,81.864067 131.598312,81.083069 130.722549,81.036095 
	C122.492546,80.594742 114.238609,79.857246 106.022911,80.134232 
	C99.838844,80.342728 93.267311,80.296959 89.663025,87.576820 
	C86.395279,94.176956 81.731361,100.078743 78.344902,106.630547 
	C76.923393,109.380737 75.769646,113.735603 76.967972,116.115173 
	C81.695686,125.503250 87.331825,134.441864 92.835190,143.422043 
	C93.595451,144.662613 95.454971,145.854004 96.884743,145.955750 
	C104.609955,146.505463 112.373169,146.521835 120.098175,147.073608 
	C128.681290,147.686646 135.329590,145.386566 138.347672,136.530411 
	C138.548218,135.941925 139.158829,135.493195 139.992004,134.357071 
M55.569824,135.989883 
	C58.011646,129.820908 60.549217,123.687035 62.832745,117.460007 
	C63.459064,115.752075 63.990513,113.528053 63.427223,111.946198 
	C60.570057,103.922546 57.338234,96.032303 54.177246,87.940590 
	C44.016541,90.296318 34.547543,94.369095 26.060829,100.450111 
	C17.048487,106.907745 15.205572,115.031090 21.194056,121.661079 
	C29.225506,130.552872 39.830547,135.288589 50.978134,138.841431 
	C52.011246,139.170685 53.706173,137.423401 55.569824,135.989883 
M75.715431,154.969589 
	C70.963646,154.037750 66.211861,153.105911 61.286156,152.139954 
	C58.856148,164.082123 56.222549,175.936157 59.959522,188.028564 
	C61.629181,193.431396 63.472969,197.744385 71.098503,197.257278 
	C76.569046,196.907822 81.475159,195.916946 85.926445,193.025787 
	C92.958969,188.458069 99.810921,183.612350 106.786568,178.852036 
	C100.713463,171.080414 95.515091,164.360672 90.209877,157.726364 
	C89.561783,156.915909 88.390747,156.207382 87.375526,156.063889 
	C83.810570,155.559998 80.207794,155.323593 75.715431,154.969589 
M124.434547,173.890030 
	C123.230446,175.217117 122.026352,176.544189 120.588669,178.128723 
	C123.025558,180.234543 125.022949,182.472534 127.470665,183.978729 
	C134.505478,188.307648 141.395477,193.121841 148.953613,196.284683 
	C157.663391,199.929459 165.216782,195.449402 167.070343,187.495148 
	C169.852478,175.556061 168.639175,163.899811 165.575348,151.938766 
	C158.285370,153.138718 151.085953,154.236023 143.926392,155.550446 
	C141.464890,156.002335 138.305588,156.271744 136.845123,157.878723 
	C132.479401,162.682449 128.796783,168.106964 124.434547,173.890030 
M166.075974,70.564423 
	C166.713333,62.038982 168.675278,53.358719 167.700821,45.021675 
	C165.903824,29.647503 159.838699,25.592514 143.467041,33.129124 
	C136.222488,36.464119 130.210571,42.408646 123.431000,46.850979 
	C120.120430,49.020226 120.833961,50.437778 123.118530,52.819435 
	C126.052338,55.877922 128.285538,59.619587 131.281525,62.604233 
	C134.454361,65.765060 135.402740,71.169571 141.200531,71.798073 
	C148.341187,72.572136 155.402405,74.083199 162.544235,74.837845 
	C163.584229,74.947731 164.880997,72.627434 166.075974,70.564423 
M167.386459,100.090576 
	C166.806198,101.939034 166.579819,104.011482 165.578522,105.593452 
	C162.712570,110.121445 162.369598,114.442657 164.925598,119.300583 
	C166.953842,123.155434 168.417969,127.329979 169.892075,131.448654 
	C172.755630,139.449402 172.791336,139.752106 180.291962,136.896576 
	C189.640137,133.337708 198.599594,129.028488 205.399323,121.214226 
	C210.224915,115.668663 210.236588,111.000214 205.338348,105.740883 
	C196.346985,96.086678 184.840942,91.316772 172.672791,88.102562 
	C171.022430,92.101051 169.488052,95.818520 167.386459,100.090576 
M107.746567,71.011406 
	C113.007004,71.011406 118.267448,71.011406 123.527885,71.011406 
	C123.638123,70.425880 123.748352,69.840347 123.858589,69.254822 
	C120.507973,65.129509 117.157356,61.004196 113.428413,56.413078 
	C109.502357,61.226810 105.933395,65.602730 101.521523,71.012131 
	C104.533241,71.012131 105.680916,71.012131 107.746567,71.011406 
M76.030434,144.165985 
	C77.613708,144.437363 79.196983,144.708740 81.563385,145.114349 
	C77.447510,138.190018 73.917274,132.250931 70.016594,125.688629 
	C67.875954,131.523956 66.004967,136.624222 63.850163,142.498169 
	C67.914482,143.070145 71.547096,143.581375 76.030434,144.165985 
M150.432434,135.975845 
	C148.911331,138.804977 147.390213,141.634094 145.480270,145.186417 
	C151.963226,143.932480 157.325211,142.895370 163.063751,141.785416 
	C160.945099,136.412872 158.914505,131.263611 156.585464,125.357552 
	C154.378922,129.233810 152.630798,132.304764 150.432434,135.975845 
M154.701965,83.847763 
	C151.890808,83.490181 149.079651,83.132599 145.483307,82.675133 
	C149.414108,89.424149 152.759109,95.167366 156.590149,101.745094 
	C158.751099,96.015327 160.690399,90.873268 162.801910,85.274590 
	C159.683578,84.694595 157.625320,84.311768 154.701965,83.847763 
M68.015800,96.450027 
	C68.582901,97.995514 69.150002,99.541000 69.955986,101.737511 
	C73.928871,94.937416 77.498589,88.827393 81.272827,82.367325 
	C78.112740,82.821701 75.390221,83.152580 72.690895,83.618034 
	C69.888344,84.101288 67.108246,84.714783 64.162964,85.302315 
	C65.455475,88.934410 66.654068,92.302589 68.015800,96.450027 
z"/>
<path fill="#34C8E8" opacity="1.000000" stroke="none" 
	d="
M49.100716,39.414581 
	C49.432022,40.261696 49.902721,41.537716 49.916561,42.818668 
	C50.004112,50.923573 49.990498,59.029572 49.983681,67.598282 
	C47.051579,58.741562 47.566914,49.309235 49.100716,39.414581 
z"/>
<path fill="#34C8E8" opacity="1.000000" stroke="none" 
	d="
M50.922806,73.467117 
	C51.092262,74.647514 51.301373,76.233902 51.214333,77.883690 
	C50.932941,76.589096 50.947701,75.231102 50.922806,73.467117 
z"/>
<path fill="#30C5E1" opacity="1.000000" stroke="none" 
	d="
M72.869377,19.637245 
	C71.322067,19.987061 69.570610,20.007704 67.382141,20.002680 
	C68.851822,19.754032 70.758530,19.531052 72.869377,19.637245 
z"/>
<path fill="#30C5E1" opacity="1.000000" stroke="none" 
	d="
M66.633484,19.962139 
	C65.900299,20.289116 64.789612,20.646299 63.310051,20.984642 
	C64.046112,20.641317 65.151047,20.316832 66.633484,19.962139 
z"/>
<path fill="#31C4DF" opacity="1.000000" stroke="none" 
	d="
M93.989166,27.708038 
	C93.174042,27.506994 92.227379,26.993567 91.134514,26.177620 
	C91.944748,26.381950 92.901199,26.888803 93.989166,27.708038 
z"/>
<path fill="#34C8E8" opacity="1.000000" stroke="none" 
	d="
M49.951317,68.401955 
	C50.152496,69.174782 50.381130,70.354141 50.406197,71.797211 
	C50.128010,70.976776 50.053391,69.892632 49.951317,68.401955 
z"/>
<path fill="#31C4DF" opacity="1.000000" stroke="none" 
	d="
M76.928665,20.643311 
	C75.920967,20.786058 74.727951,20.598301 73.264618,20.161833 
	C74.243980,20.046350 75.493660,20.179579 76.928665,20.643311 
z"/>
<path fill="#31C4DF" opacity="1.000000" stroke="none" 
	d="
M81.951500,21.707264 
	C81.257538,21.866039 80.381401,21.710814 79.229950,21.360588 
	C79.892868,21.241480 80.831100,21.317371 81.951500,21.707264 
z"/>
<path fill="#30C5E1" opacity="1.000000" stroke="none" 
	d="
M51.701008,31.972769 
	C51.810188,32.694073 51.598534,33.589489 51.134308,34.726715 
	C51.047882,34.027977 51.214027,33.087429 51.701008,31.972769 
z"/>
<path fill="#30C5E1" opacity="1.000000" stroke="none" 
	d="
M62.659950,20.970829 
	C62.486805,21.270641 61.996758,21.608456 61.200996,21.984337 
	C61.377876,21.684544 61.860466,21.346687 62.659950,20.970829 
z"/>
<path fill="#30C5E1" opacity="1.000000" stroke="none" 
	d="
M53.672997,28.069824 
	C53.776859,28.509882 53.584366,29.064651 53.158241,29.809540 
	C53.075283,29.394619 53.225964,28.789577 53.672997,28.069824 
z"/>
<path fill="#31C4DF" opacity="1.000000" stroke="none" 
	d="
M86.981964,23.726093 
	C86.564201,23.865013 86.000732,23.708855 85.206299,23.368202 
	C85.595642,23.266144 86.215958,23.348579 86.981964,23.726093 
z"/>
<path fill="#30C5E1" opacity="1.000000" stroke="none" 
	d="
M59.905159,22.163620 
	C59.996090,22.494574 59.747021,22.707588 59.204041,22.919399 
	C59.183968,22.692263 59.402309,22.401426 59.905159,22.163620 
z"/>
<path fill="#30C5E1" opacity="1.000000" stroke="none" 
	d="
M58.719978,23.029917 
	C58.775982,23.239189 58.562160,23.514254 58.107506,23.901049 
	C58.061165,23.707088 58.255657,23.401400 58.719978,23.029917 
z"/>
<path fill="#30C5E1" opacity="1.000000" stroke="none" 
	d="
M54.731499,27.019676 
	C54.796528,27.223063 54.601536,27.494894 54.176712,27.876194 
	C54.121746,27.686483 54.296612,27.387304 54.731499,27.019676 
z"/>
<path fill="#30C5E1" opacity="1.000000" stroke="none" 
	d="
M56.745331,24.959846 
	C56.809299,25.154179 56.609901,25.444502 56.176094,25.863716 
	C56.121773,25.680351 56.301868,25.368095 56.745331,24.959846 
z"/>
<path fill="#30C5E1" opacity="1.000000" stroke="none" 
	d="
M55.729374,26.014383 
	C55.795860,26.215942 55.602482,26.490601 55.180046,26.878653 
	C55.123833,26.690525 55.296673,26.389004 55.729374,26.014383 
z"/>
<path fill="#31C4DF" opacity="1.000000" stroke="none" 
	d="
M96.001633,28.754265 
	C95.802383,28.887360 95.496254,28.746731 95.018570,28.414284 
	C95.196266,28.308489 95.545502,28.394514 96.001633,28.754265 
z"/>
<path fill="#31C4DF" opacity="1.000000" stroke="none" 
	d="
M97.948013,29.715935 
	C97.709930,29.947620 97.423645,29.821733 97.017212,29.424698 
	C97.189964,29.315912 97.524216,29.384184 97.948013,29.715935 
z"/>
<path fill="#30C5E1" opacity="1.000000" stroke="none" 
	d="
M52.690323,30.024395 
	C52.834110,30.237637 52.693886,30.548508 52.364479,31.039164 
	C52.252300,30.853306 52.329304,30.487663 52.690323,30.024395 
z"/>
<path fill="#31C4DF" opacity="1.000000" stroke="none" 
	d="
M98.999184,30.725685 
	C98.790062,30.799824 98.512871,30.610096 98.124542,30.190239 
	C98.319305,30.127344 98.625214,30.294582 98.999184,30.725685 
z"/>
<path fill="#31C4DF" opacity="1.000000" stroke="none" 
	d="
M100.052986,31.745842 
	C99.859459,31.808964 99.565697,31.606909 99.138947,31.169188 
	C99.321564,31.115904 99.637154,31.298285 100.052986,31.745842 
z"/>
<path fill="#30C5E1" opacity="1.000000" stroke="none" 
	d="
M50.708549,34.974892 
	C50.873566,35.183884 50.725395,35.436348 50.340935,35.793617 
	C50.272644,35.646801 50.369553,35.353451 50.708549,34.974892 
z"/>
<path fill="#31C4DF" opacity="1.000000" stroke="none" 
	d="
M104.020439,34.754433 
	C103.840630,34.811783 103.546692,34.621548 103.125679,34.197853 
	C103.301170,34.145210 103.603745,34.326027 104.020439,34.754433 
z"/>
<path fill="#31C4DF" opacity="1.000000" stroke="none" 
	d="
M102.970779,33.741692 
	C102.763443,33.810680 102.492973,33.621006 102.120483,33.201332 
	C102.314865,33.141891 102.611259,33.312458 102.970779,33.741692 
z"/>
<path fill="#31C4DF" opacity="1.000000" stroke="none" 
	d="
M101.940971,32.696911 
	C101.724548,32.843472 101.422409,32.709850 100.951492,32.386559 
	C101.140228,32.270172 101.497742,32.343452 101.940971,32.696911 
z"/>
<path fill="#000000" opacity="1.000000" stroke="none" 
	d="
M139.785339,134.668274 
	C139.158829,135.493195 138.548218,135.941925 138.347672,136.530411 
	C135.329590,145.386566 128.681290,147.686646 120.098175,147.073608 
	C112.373169,146.521835 104.609955,146.505463 96.884743,145.955750 
	C95.454971,145.854004 93.595451,144.662613 92.835190,143.422043 
	C87.331825,134.441864 81.695686,125.503250 76.967972,116.115173 
	C75.769646,113.735603 76.923393,109.380737 78.344902,106.630547 
	C81.731361,100.078743 86.395279,94.176956 89.663025,87.576820 
	C93.267311,80.296959 99.838844,80.342728 106.022911,80.134232 
	C114.238609,79.857246 122.492546,80.594742 130.722549,81.036095 
	C131.598312,81.083069 132.757965,81.864067 133.222153,82.641266 
	C138.963959,92.255089 144.984146,101.740730 149.963699,111.741814 
	C151.047653,113.918861 148.661560,118.163895 147.250626,121.163399 
	C145.118332,125.696419 142.438919,129.972061 139.785339,134.668274 
M119.087814,131.906479 
	C127.678368,128.934738 133.933640,118.235512 132.935654,112.229607 
	C131.658707,104.544930 128.017609,98.347366 120.570061,95.371407 
	C113.805832,92.668503 102.670082,96.023949 98.068855,101.568657 
	C92.870110,107.833412 92.509216,118.105194 97.485817,124.861763 
	C101.794769,130.711899 111.858673,135.191208 119.087814,131.906479 
z"/>
<path fill="#000000" opacity="1.000000" stroke="none" 
	d="
M55.331810,136.315094 
	C53.706173,137.423401 52.011246,139.170685 50.978134,138.841431 
	C39.830547,135.288589 29.225506,130.552872 21.194056,121.661079 
	C15.205572,115.031090 17.048487,106.907745 26.060829,100.450111 
	C34.547543,94.369095 44.016541,90.296318 54.177246,87.940590 
	C57.338234,96.032303 60.570057,103.922546 63.427223,111.946198 
	C63.990513,113.528053 63.459064,115.752075 62.832745,117.460007 
	C60.549217,123.687035 58.011646,129.820908 55.331810,136.315094 
z"/>
<path fill="#000000" opacity="1.000000" stroke="none" 
	d="
M76.167404,154.977615 
	C80.207794,155.323593 83.810570,155.559998 87.375526,156.063889 
	C88.390747,156.207382 89.561783,156.915909 90.209877,157.726364 
	C95.515091,164.360672 100.713463,171.080414 106.786568,178.852036 
	C99.810921,183.612350 92.958969,188.458069 85.926445,193.025787 
	C81.475159,195.916946 76.569046,196.907822 71.098503,197.257278 
	C63.472969,197.744385 61.629181,193.431396 59.959522,188.028564 
	C56.222549,175.936157 58.856148,164.082123 61.286156,152.139954 
	C66.211861,153.105911 70.963646,154.037750 76.167404,154.977615 
z"/>
<path fill="#000000" opacity="1.000000" stroke="none" 
	d="
M61.012894,74.802734 
	C60.010277,67.224281 58.529472,59.667850 58.179070,52.059361 
	C57.958393,47.267750 58.997192,42.282936 60.245579,37.590881 
	C62.070217,30.732990 67.993851,27.554810 75.511269,30.367516 
	C82.843849,33.111069 89.744423,37.176498 96.505127,41.213455 
	C100.099106,43.359497 102.994629,46.675259 106.214813,49.471165 
	C100.398758,56.607143 94.839836,63.427628 88.763214,70.615585 
	C87.135231,71.306274 86.024940,71.629486 84.914650,71.952690 
	C84.914650,71.952690 84.999718,71.973129 84.553757,71.979073 
	C77.714348,72.978317 71.320892,73.971611 64.927437,74.964912 
	C64.927437,74.964912 64.996696,74.985893 64.605286,74.986092 
	C63.146881,74.925102 62.079891,74.863914 61.012894,74.802734 
z"/>
<path fill="#000000" opacity="1.000000" stroke="none" 
	d="
M124.640991,173.589554 
	C128.796783,168.106964 132.479401,162.682449 136.845123,157.878723 
	C138.305588,156.271744 141.464890,156.002335 143.926392,155.550446 
	C151.085953,154.236023 158.285370,153.138718 165.575348,151.938766 
	C168.639175,163.899811 169.852478,175.556061 167.070343,187.495148 
	C165.216782,195.449402 157.663391,199.929459 148.953613,196.284683 
	C141.395477,193.121841 134.505478,188.307648 127.470665,183.978729 
	C125.022949,182.472534 123.025558,180.234543 120.588669,178.128723 
	C122.026352,176.544189 123.230446,175.217117 124.640991,173.589554 
z"/>
<path fill="#000000" opacity="1.000000" stroke="none" 
	d="
M166.067474,70.998032 
	C164.880997,72.627434 163.584229,74.947731 162.544235,74.837845 
	C155.402405,74.083199 148.341187,72.572136 141.200531,71.798073 
	C135.402740,71.169571 134.454361,65.765060 131.281525,62.604233 
	C128.285538,59.619587 126.052338,55.877922 123.118530,52.819435 
	C120.833961,50.437778 120.120430,49.020226 123.431000,46.850979 
	C130.210571,42.408646 136.222488,36.464119 143.467041,33.129124 
	C159.838699,25.592514 165.903824,29.647503 167.700821,45.021675 
	C168.675278,53.358719 166.713333,62.038982 166.067474,70.998032 
z"/>
<path fill="#000000" opacity="1.000000" stroke="none" 
	d="
M167.670074,99.813278 
	C169.488052,95.818520 171.022430,92.101051 172.672791,88.102562 
	C184.840942,91.316772 196.346985,96.086678 205.338348,105.740883 
	C210.236588,111.000214 210.224915,115.668663 205.399323,121.214226 
	C198.599594,129.028488 189.640137,133.337708 180.291962,136.896576 
	C172.791336,139.752106 172.755630,139.449402 169.892075,131.448654 
	C168.417969,127.329979 166.953842,123.155434 164.925598,119.300583 
	C162.369598,114.442657 162.712570,110.121445 165.578522,105.593452 
	C166.579819,104.011482 166.806198,101.939034 167.670074,99.813278 
z"/>
<path fill="#000000" opacity="1.000000" stroke="none" 
	d="
M107.287575,71.011765 
	C105.680916,71.012131 104.533241,71.012131 101.521523,71.012131 
	C105.933395,65.602730 109.502357,61.226810 113.428413,56.413078 
	C117.157356,61.004196 120.507973,65.129509 123.858589,69.254822 
	C123.748352,69.840347 123.638123,70.425880 123.527885,71.011406 
	C118.267448,71.011406 113.007004,71.011406 107.287575,71.011765 
z"/>
<path fill="#000000" opacity="1.000000" stroke="none" 
	d="
M123.032684,156.821960 
	C123.047768,157.724472 123.290047,158.706650 123.009918,159.505661 
	C122.761757,160.213501 121.853920,160.660187 121.371887,161.320419 
	C114.311768,170.990677 114.317139,170.994598 105.999199,162.109131 
	C105.596344,161.345596 105.301735,161.153534 105.007118,160.961472 
	C105.007118,160.961472 104.994545,161.007828 104.944626,160.745102 
	C104.597610,160.306625 104.300514,160.130875 104.003418,159.955139 
	C104.003410,159.955139 103.991562,160.006760 103.950920,159.738831 
	C103.610298,159.287506 103.310326,159.104126 103.010345,158.920731 
	C103.010345,158.920731 102.999504,159.002884 103.026443,158.568161 
	C104.307350,157.751114 105.551971,157.077682 106.816933,157.037033 
	C112.218910,156.863480 117.626892,156.876816 123.032684,156.821960 
z"/>
<path fill="#000000" opacity="1.000000" stroke="none" 
	d="
M75.605072,144.129303 
	C71.547096,143.581375 67.914482,143.070145 63.850163,142.498169 
	C66.004967,136.624222 67.875954,131.523956 70.016594,125.688629 
	C73.917274,132.250931 77.447510,138.190018 81.563385,145.114349 
	C79.196983,144.708740 77.613708,144.437363 75.605072,144.129303 
z"/>
<path fill="#000000" opacity="1.000000" stroke="none" 
	d="
M150.657562,135.675781 
	C152.630798,132.304764 154.378922,129.233810 156.585464,125.357552 
	C158.914505,131.263611 160.945099,136.412872 163.063751,141.785416 
	C157.325211,142.895370 151.963226,143.932480 145.480270,145.186417 
	C147.390213,141.634094 148.911331,138.804977 150.657562,135.675781 
z"/>
<path fill="#000000" opacity="1.000000" stroke="none" 
	d="
M155.134521,83.888351 
	C157.625320,84.311768 159.683578,84.694595 162.801910,85.274590 
	C160.690399,90.873268 158.751099,96.015327 156.590149,101.745094 
	C152.759109,95.167366 149.414108,89.424149 145.483307,82.675133 
	C149.079651,83.132599 151.890808,83.490181 155.134521,83.888351 
z"/>
<path fill="#000000" opacity="1.000000" stroke="none" 
	d="
M67.934235,96.060394 
	C66.654068,92.302589 65.455475,88.934410 64.162964,85.302315 
	C67.108246,84.714783 69.888344,84.101288 72.690895,83.618034 
	C75.390221,83.152580 78.112740,82.821701 81.272827,82.367325 
	C77.498589,88.827393 73.928871,94.937416 69.955986,101.737511 
	C69.150002,99.541000 68.582901,97.995514 67.934235,96.060394 
z"/>
<path fill="#33C9E7" opacity="1.000000" stroke="none" 
	d="
M65.372032,74.995293 
	C71.320892,73.971611 77.714348,72.978317 84.563248,71.936371 
	C78.617996,72.933701 72.217316,73.979683 65.372032,74.995293 
z"/>
<path fill="#2CCBE7" opacity="1.000000" stroke="none" 
	d="
M122.671265,156.618927 
	C117.626892,156.876816 112.218910,156.863480 106.816933,157.037033 
	C105.551971,157.077682 104.307350,157.751114 103.067497,158.573654 
	C103.710419,158.013885 104.325104,156.158325 104.970215,156.147690 
	C110.747047,156.052383 116.529228,156.281906 122.671265,156.618927 
z"/>
<path fill="#33C9E7" opacity="1.000000" stroke="none" 
	d="
M61.215706,75.071472 
	C62.079891,74.863914 63.146881,74.925102 64.615341,74.951340 
	C63.817371,75.057655 62.617939,75.198929 61.215706,75.071472 
z"/>
<path fill="#33C9E7" opacity="1.000000" stroke="none" 
	d="
M85.285873,71.968491 
	C86.024940,71.629486 87.135231,71.306274 88.619370,70.917923 
	C87.881187,71.229950 86.769142,71.607117 85.285873,71.968491 
z"/>
<path fill="#2CCBE7" opacity="1.000000" stroke="none" 
	d="
M103.127754,159.148102 
	C103.310326,159.104126 103.610298,159.287506 103.977005,159.734222 
	C103.777534,159.790192 103.511353,159.582825 103.127754,159.148102 
z"/>
<path fill="#2CCBE7" opacity="1.000000" stroke="none" 
	d="
M104.123344,160.176758 
	C104.300514,160.130875 104.597610,160.306625 104.968002,160.739563 
	C104.775284,160.797302 104.509277,160.597824 104.123344,160.176758 
z"/>
<path fill="#2CCBE7" opacity="1.000000" stroke="none" 
	d="
M105.086304,161.179520 
	C105.301735,161.153534 105.596344,161.345596 105.837906,161.810699 
	C105.527657,161.900803 105.321198,161.672089 105.086304,161.179520 
z"/>
<path fill="#09D6FA" opacity="1.000000" stroke="none" 
	d="
M118.674454,131.940247 
	C111.858673,135.191208 101.794769,130.711899 97.485817,124.861763 
	C92.509216,118.105194 92.870110,107.833412 98.068855,101.568657 
	C102.670082,96.023949 113.805832,92.668503 120.570061,95.371407 
	C128.017609,98.347366 131.658707,104.544930 132.935654,112.229607 
	C133.933640,118.235512 127.678368,128.934738 118.674454,131.940247 
z"/>
</svg>